<svg width="32" height="32" viewBox="0 0 32 32" fill="none" xmlns="http://www.w3.org/2000/svg">
<g clip-path="url(#clip0_83_3045)">
<path d="M21.3327 28L14.9833 16.36L19.9993 8L30.666 28H21.3327ZM10.666 13.3333L18.666 28H2.66602L10.666 13.3333ZM7.33268 10.6667C6.44863 10.6667 5.60078 10.3155 4.97566 9.69036C4.35054 9.06523 3.99935 8.21739 3.99935 7.33333C3.99935 6.44928 4.35054 5.60143 4.97566 4.97631C5.60078 4.35119 6.44863 4 7.33268 4C8.21674 4 9.06458 4.35119 9.68971 4.97631C10.3148 5.60143 10.666 6.44928 10.666 7.33333C10.666 8.21739 10.3148 9.06523 9.68971 9.69036C9.06458 10.3155 8.21674 10.6667 7.33268 10.6667Z" fill="white"/>
</g>
<defs>
<clipPath id="clip0_83_3045">
<rect width="32" height="32" fill="white"/>
</clipPath>
</defs>
</svg>
